<svg width="363" height="412" viewBox="0 0 363 412" fill="none" xmlns="http://www.w3.org/2000/svg">
<path d="M33 371L0 0.599609H362.8L329.8 370.8L181.1 412" fill="#FF6600"/>
<path d="M181.4 380.5V31H329.7L301.4 347" fill="#FF893B"/>
<path d="M69.4004 103L181.4 77V122.4L119.2 136.4L121.4 168.9L127.4 237L130.6 273.3L181.4 286.9V334.3L88.2004 308.3" fill="#EBEBEB"/>
<path d="M291.999 103L181.199 77V122.4L240 136.4L231.899 273.3L181.199 286.9V334.1L274.199 308.3" fill="white"/>
<rect x="223.336" y="114.809" width="42.4062" height="204.5" transform="rotate(36.8188 223.336 114.809)" fill="white"/>
<path d="M181 171.999L181 242L134.736 303.933L100.788 278.52L181 171.999Z" fill="#EBEBEB"/>
</svg>
